<?xml version="1.0" encoding="UTF-8"?>
<svg width="752pt" height="752pt" version="1.1" viewBox="0 0 752 752" xmlns="http://www.w3.org/2000/svg">
 <path d="m468.35 206.5h-33.152v-21.703c0-14.363-11.688-26.047-26.047-26.047h-66.301c-14.359 0-26.047 11.684-26.047 26.047v21.703h-33.152c-14.359 0-26.047 11.684-26.047 26.047v334.66c0 14.363 11.688 26.047 26.047 26.047h184.7c14.359 0 26.047-11.684 26.047-26.047l0.003907-334.66c0-14.359-11.691-26.047-26.047-26.047zm2.3672 360.71c0 1.3086-1.0664 2.3672-2.3672 2.3672h-184.7c-1.3008 0-2.3672-1.0625-2.3672-2.3672l-0.003906-334.67c0-1.3086 1.0664-2.3672 2.3672-2.3672h184.7c1.3008 0 2.3672 1.0625 2.3672 2.3672zm-64.781-282.15-1.2773-0.86328-78.289 90.121 45.367 14.895-25.559 77.855 1.0625 0.72266 78.391-90.59-45.117-14.699z"/>
</svg>
