<?xml version="1.0" encoding="UTF-8"?>
<svg width="752pt" height="752pt" version="1.1" viewBox="0 0 752 752" xmlns="http://www.w3.org/2000/svg">
 <g>
  <path d="m289.06 456.25-23.441 23.441c-1.8516 1.8516-1.8516 4.8477 0 6.6953 0.92578 0.92578 2.1367 1.3867 3.3477 1.3867s2.4219-0.46094 3.3477-1.3867l23.441-23.441c1.8516-1.8516 1.8516-4.8477 0-6.6953-1.8477-1.8516-4.8477-1.8516-6.6953 0z"/>
  <path d="m316.8 392.58c2.6172 0 4.7344-2.1211 4.7344-4.7344v-33.152c0-2.6172-2.1211-4.7344-4.7344-4.7344-2.6172 0-4.7344 2.1211-4.7344 4.7344v33.152c-0.003906 2.6133 2.1172 4.7344 4.7344 4.7344z"/>
  <path d="m402.05 430.46h-33.152c-2.6172 0-4.7344 2.1211-4.7344 4.7344 0 2.6172 2.1211 4.7344 4.7344 4.7344h33.152c2.6172 0 4.7344-2.1211 4.7344-4.7344 0.003906-2.6172-2.1172-4.7344-4.7344-4.7344z"/>
  <path d="m316.8 406.79c-15.668 0-28.414 12.746-28.414 28.414 0 7.8359 3.1875 14.938 8.332 20.082 5.1445 5.1445 12.246 8.332 20.082 8.332 15.668 0 28.414-12.746 28.414-28.414s-12.746-28.414-28.414-28.414zm18.27 33.148c-2.1172 8.1484-9.4688 14.207-18.27 14.207-5.2227 0-9.957-2.125-13.387-5.5547-3.4336-3.4297-5.5586-8.1641-5.5586-13.387 0-10.445 8.5-18.941 18.941-18.941 8.8008 0 16.152 6.0586 18.27 14.207 0.39844 1.5195 0.67578 3.0898 0.67578 4.7344s-0.27734 3.2148-0.67188 4.7344z"/>
  <path d="m558.33 222.09c0-15.668-12.746-28.414-28.414-28.414-14.051 0-25.723 10.262-27.988 23.68h-157.14c-2.2656-13.418-13.934-23.68-27.988-23.68-15.668 0-28.414 12.746-28.414 28.414 0 6.1289 1.9688 11.793 5.2812 16.438l-55.141 55.145c-4.6484-3.3086-10.312-5.2773-16.441-5.2773-15.668 0-28.414 12.746-28.414 28.414 0 14.051 10.262 25.723 23.68 27.988v157.14c-13.418 2.2656-23.68 13.934-23.68 27.988 0 15.668 12.746 28.414 28.414 28.414 14.051 0 25.723-10.262 27.988-23.68h157.14c2.2656 13.418 13.934 23.68 27.988 23.68 15.668 0 28.414-12.746 28.414-28.414 0-8.3633-3.6523-15.867-9.418-21.07l57.945-51.508c4.8711 3.9141 11.051 6.2734 17.773 6.2734 15.668 0 28.414-12.746 28.414-28.414 0-14.051-10.262-25.723-23.68-27.988l0.003906-157.14c13.414-2.2656 23.68-13.934 23.68-27.988zm-241.53-18.941c8.8008 0 16.152 6.0586 18.27 14.207 0.39453 1.5234 0.67188 3.0898 0.67188 4.7344 0 1.6445-0.27734 3.2148-0.67188 4.7344-1.7227 6.6289-6.9102 11.816-13.535 13.539-1.5234 0.39453-3.0898 0.67188-4.7344 0.67188-1.6445 0-3.2148-0.27734-4.7344-0.67188-1.7188-0.44531-3.332-1.1289-4.8281-2.0117-1.3828-0.81641-2.6953-1.7422-3.8281-2.8711-1.1289-1.1289-2.0547-2.4414-2.8711-3.8281-1.6602-2.8164-2.6836-6.0586-2.6836-9.5625 0-10.445 8.5-18.941 18.945-18.941zm-16.438 42.078c3.4219 2.4375 7.3945 4.125 11.703 4.8516l-0.003906 5.1641c0 2.6172 2.1211 4.7344 4.7344 4.7344 2.6172 0 4.7344-2.1211 4.7344-4.7344v-5.1641c11.875-2.0039 21.246-11.379 23.25-23.25h157.14c0.72656 4.3047 2.4141 8.2812 4.8516 11.703l-55.145 55.141c-4.6445-3.3086-10.309-5.2773-16.438-5.2773-14.051 0-25.723 10.262-27.988 23.68l-85.672-0.003906v-23.68c0-2.6172-2.1211-4.7344-4.7344-4.7344-2.6172 0-4.7344 2.1211-4.7344 4.7344v23.68h-61.996c-0.72656-4.3047-2.4141-8.2812-4.8516-11.703zm153.77 71.582c0 8.8008-6.0586 16.152-14.207 18.27-1.5195 0.39453-3.0898 0.67188-4.7344 0.67188s-3.2148-0.27734-4.7344-0.67188c-6.625-1.7227-11.812-6.9102-13.535-13.535-0.39844-1.5234-0.67578-3.0898-0.67578-4.7344 0-1.6445 0.27734-3.2148 0.67188-4.7344 2.1172-8.1484 9.4688-14.207 18.27-14.207 3.5039 0 6.7461 1.0195 9.5625 2.6836 1.3828 0.81641 2.6953 1.7422 3.8281 2.8711 1.1289 1.1289 2.0547 2.4414 2.8711 3.8281 1.6641 2.8125 2.6836 6.0547 2.6836 9.5586zm-251 0c0-10.445 8.5-18.941 18.941-18.941 3.5039 0 6.7461 1.0195 9.5625 2.6836 1.3828 0.81641 2.6953 1.7422 3.8281 2.8711 1.1289 1.1289 2.0547 2.4414 2.8711 3.8281 0.88281 1.4961 1.5664 3.1055 2.0117 4.8281 0.39453 1.5156 0.67188 3.0859 0.67188 4.7305 0 1.6445-0.27734 3.2148-0.67188 4.7344-1.7227 6.625-6.9102 11.812-13.535 13.535-1.5234 0.39453-3.0938 0.67188-4.7383 0.67188-1.6445 0-3.2148-0.27734-4.7344-0.67188-8.1484-2.1172-14.207-9.4688-14.207-18.27zm37.215 217.85c-2.1172 8.1484-9.4688 14.207-18.27 14.207-10.445 0-18.941-8.5-18.941-18.941 0-8.8008 6.0586-16.152 14.207-18.27 1.5195-0.39844 3.0859-0.67578 4.7305-0.67578 1.6445 0 3.2148 0.27734 4.7344 0.67188 1.7188 0.44531 3.332 1.1289 4.8281 2.0117 1.3828 0.81641 2.6953 1.7422 3.8281 2.8711 1.1289 1.1289 2.0547 2.4414 2.8711 3.8281 0.88281 1.4961 1.5664 3.1055 2.0117 4.8281 0.39453 1.5195 0.67188 3.0859 0.67188 4.7305 0 1.6445-0.27734 3.2148-0.67188 4.7383zm166.85-9.4727h-157.14c-0.72656-4.3047-2.4141-8.2812-4.8516-11.703l3.6523-3.6523c1.8516-1.8516 1.8516-4.8477 0-6.6953-1.8516-1.8516-4.8477-1.8516-6.6953 0l-3.6523 3.6523c-3.4219-2.4375-7.3984-4.125-11.703-4.8516v-157.14c11.875-2.0039 21.246-11.379 23.25-23.25h61.992c0 2.6172 2.1211 4.7344 4.7344 4.7344 2.6172 0 4.7344-2.1211 4.7344-4.7344h85.672c2.0039 11.875 11.379 21.246 23.25 23.25l0.007813 90.41v66.73c-11.875 2.0039-21.25 11.375-23.254 23.25zm27.988 23.68c-8.8008 0-16.152-6.0586-18.27-14.207-0.39844-1.5234-0.67578-3.0938-0.67578-4.7383 0-1.6445 0.27734-3.2148 0.67188-4.7344 1.7227-6.625 6.9102-11.812 13.535-13.535 1.5234-0.39453 3.0938-0.67188 4.7383-0.67188 0.71875 0 1.4023 0.13281 2.1016 0.21094 0.89844 0.10156 1.7773 0.23828 2.6328 0.46094 0.99609 0.25781 1.9727 0.55469 2.8945 0.96094 1.5234 0.67578 2.9023 1.5859 4.1836 2.6211 4.3125 3.4766 7.1289 8.7344 7.1289 14.688 0 10.445-8.4961 18.945-18.941 18.945zm66.301-108.93h0.42969c0.62891 3.7344 1.9883 7.2188 3.9297 10.312l-60.012 53.344c-1.8789-0.76172-3.8594-1.3164-5.9141-1.6602v-61.996h28.414c2.6172 0 4.7344-2.1211 4.7344-4.7344 0-2.6172-2.1211-4.7344-4.7344-4.7344h-28.414v-85.676c13.418-2.2656 23.68-13.934 23.68-27.988 0-6.1289-1.9688-11.793-5.2812-16.438l55.145-55.145c3.4219 2.4375 7.3945 4.125 11.703 4.8516v157.14c-11.875 2.0039-21.246 11.379-23.25 23.25l-0.42969 0.003906c-2.6172 0-4.7344 2.1211-4.7344 4.7344s2.1211 4.7344 4.7344 4.7344zm47.359-4.7344c0 10.445-8.5 18.941-18.941 18.941-3.9062 0-7.5352-1.1914-10.555-3.2227-1.3281-0.89453-2.4805-1.9961-3.543-3.1875-1.0586-1.1914-1.957-2.5117-2.6914-3.9453-0.62891-1.2188-1.1328-2.4961-1.4844-3.8516-0.39453-1.5195-0.67188-3.0898-0.67188-4.7344s0.27734-3.2148 0.67188-4.7344c1.7227-6.625 6.9102-11.812 13.535-13.535 1.5234-0.39844 3.0898-0.67578 4.7344-0.67578 1.6445 0 3.2148 0.27734 4.7344 0.67188 8.1484 2.1211 14.211 9.4727 14.211 18.273zm-18.945-194.17c-1.6445 0-3.2148-0.27734-4.7344-0.67188-1.7188-0.44531-3.332-1.1289-4.8281-2.0117-1.3828-0.81641-2.6953-1.7422-3.8281-2.8711-1.1289-1.1289-2.0547-2.4414-2.8711-3.8281-0.88281-1.4961-1.5664-3.1055-2.0117-4.8281-0.39062-1.5195-0.66797-3.0898-0.66797-4.7344 0-1.6445 0.27734-3.2148 0.67188-4.7344 2.1172-8.1484 9.4688-14.207 18.27-14.207 10.445 0 18.941 8.5 18.941 18.941 0 8.8008-6.0586 16.152-14.207 18.27-1.5195 0.39844-3.0898 0.67578-4.7344 0.67578z"/>
 </g>
</svg>
